<?xml version="1.0" encoding="UTF-8" standalone="no"?>
<svg
   xmlns:dc="http://purl.org/dc/elements/1.1/"
   xmlns:cc="http://creativecommons.org/ns#"
   xmlns:rdf="http://www.w3.org/1999/02/22-rdf-syntax-ns#"
   xmlns:svg="http://www.w3.org/2000/svg"
   xmlns="http://www.w3.org/2000/svg"
   xmlns:sodipodi="http://sodipodi.sourceforge.net/DTD/sodipodi-0.dtd"
   xmlns:inkscape="http://www.inkscape.org/namespaces/inkscape"
   viewBox="0 0 190.39332 100.19889"
   height="100.19889"
   width="190.39333"
   xml:space="preserve"
   id="svg825"
   version="1.1"
   sodipodi:docname="MeitY_TrillionDollarDigitalEconomy.svg"
   inkscape:version="0.92.4 (5da689c313, 2019-01-14)"><sodipodi:namedview
     pagecolor="#ffffff"
     bordercolor="#666666"
     borderopacity="1"
     objecttolerance="10"
     gridtolerance="10"
     guidetolerance="10"
     inkscape:pageopacity="0"
     inkscape:pageshadow="2"
     inkscape:window-width="1920"
     inkscape:window-height="1017"
     id="namedview867"
     showgrid="false"
     fit-margin-top="0"
     fit-margin-left="0"
     fit-margin-right="0"
     fit-margin-bottom="0"
     inkscape:zoom="0.74386201"
     inkscape:cx="152.58065"
     inkscape:cy="208.24326"
     inkscape:window-x="-8"
     inkscape:window-y="-8"
     inkscape:window-maximized="1"
     inkscape:current-layer="svg825" /><metadata
     id="metadata831"><rdf:RDF><cc:Work
         rdf:about=""><dc:format>image/svg+xml</dc:format><dc:type
           rdf:resource="http://purl.org/dc/dcmitype/StillImage" /><dc:title></dc:title></cc:Work></rdf:RDF></metadata><defs
     id="defs829"><clipPath
       id="clipPath841"
       clipPathUnits="userSpaceOnUse"><path
         id="path839"
         d="m 123.484,681.907 h 339.802 v 99.336 H 123.484 Z"
         inkscape:connector-curvature="0" /></clipPath><clipPath
       id="clipPath861"
       clipPathUnits="userSpaceOnUse"><path
         id="path859"
         d="M 123.484,678.555 H 463.287 V 781.243 H 123.484 Z"
         inkscape:connector-curvature="0" /></clipPath><clipPath
       id="clipPath879"
       clipPathUnits="userSpaceOnUse"><path
         id="path877"
         d="m 217.984,47.579 h 142.795 v 82.267 H 217.984 Z"
         inkscape:connector-curvature="0" /></clipPath></defs><g
     transform="matrix(1.3333333,0,0,-1.3333333,-244.27003,291.89538)"
     id="g833"><g
       transform="translate(-34.781474,89.183267)"
       id="g873"><g
         clip-path="url(#clipPath879)"
         id="g875"><g
           transform="translate(227.1433,91.5966)"
           id="g881"><path
             id="path883"
             style="fill:#006db7;fill-opacity:1;fill-rule:evenodd;stroke:none"
             d="m 0,0 c 1.313,0 2.501,-0.539 3.354,-1.407 l 0.885,0.87 C 3.161,0.561 1.66,1.242 0,1.242 c -1.664,0 -3.168,-0.685 -4.247,-1.787 L -3.36,-1.414 C -2.507,-0.541 -1.317,0 0,0 m 0,-4.706 -1.424,1.395 c 0.362,0.37 0.866,0.6 1.424,0.6 0.556,0 1.06,-0.229 1.421,-0.597 z m -1.998,1.958 -0.771,0.755 c 0.703,0.719 1.684,1.165 2.769,1.165 1.082,0 2.061,-0.444 2.764,-1.16 L 1.995,-2.744 C 1.487,-2.227 0.781,-1.907 0,-1.907 c -0.783,0 -1.491,-0.322 -1.998,-0.841 m -2.816,2.759 -0.813,0.797 c 1.43,1.46 3.422,2.366 5.627,2.366 2.199,0 4.188,-0.902 5.617,-2.356 L 4.805,0.02 C 3.583,1.264 1.881,2.036 0,2.036 -1.886,2.036 -3.591,1.26 -4.814,0.011"
             inkscape:connector-curvature="0" /></g><g
           transform="translate(221.8322,85.9599)"
           id="g885"><path
             id="path887"
             style="fill:#006db7;fill-opacity:1;fill-rule:evenodd;stroke:none"
             d="M 0,0 H 10.519 C 2.979,-19.082 1.675,-30.253 9.308,-29.973 -7.47,-30.951 -5.297,-14.632 0,0"
             inkscape:connector-curvature="0" /></g><g
           transform="translate(231.513,115.1887)"
           id="g889"><path
             id="path891"
             style="fill:#f16127;fill-opacity:1;fill-rule:evenodd;stroke:none"
             d="m 0,0 c 9.588,15.638 25.133,17.221 36.21,11.543 12.287,-6.33 16.104,-20.945 13.032,-33.79 -2.7,-11.729 -10.426,-22.434 -20.386,-29.322 -6.05,-4.096 -12.894,-6.844 -20.341,-8.054 5.585,1.676 10.567,5.168 14.477,9.45 2.42,2.607 4.561,5.585 6.237,8.657 5.678,7.633 8.284,15.08 8.47,21.596 C 38.072,-11.17 34.255,-2.513 26.25,1.489 19.268,5.027 9.867,4.84 0,0"
             inkscape:connector-curvature="0" /></g><g
           transform="translate(224.2523,97.5955)"
           id="g893"><path
             id="path895"
             style="fill:#00a14b;fill-opacity:1;fill-rule:evenodd;stroke:none"
             d="m 0,0 c 7.819,15.452 23.923,16.569 33.417,9.867 3.817,-2.699 6.237,-6.516 7.354,-11.077 1.303,-5.678 0.372,-11.636 -1.768,-17.221 -1.862,-5.026 -4.934,-10.053 -8.75,-14.149 -5.399,-5.957 -13.125,-10.518 -21.41,-10.425 -3.165,0 -6.33,0.745 -9.402,2.513 3.91,-1.862 9.961,-1.21 13.684,0.279 6.144,2.514 11.077,7.726 14.149,13.498 3.816,7.074 6.795,18.431 0.745,24.946 C 22.527,4.282 11.543,6.33 0,0"
             inkscape:connector-curvature="0" /></g><g
           transform="translate(286.9838,92.3979)"
           id="g897"><path
             id="path899"
             style="fill:#5c6266;fill-opacity:1;fill-rule:nonzero;stroke:none"
             d="M 0,0 H 3.216 C 4.831,0 5.967,-0.462 6.625,-1.382 7.28,-2.303 7.449,-3.49 7.131,-4.945 6.804,-6.444 6.095,-7.688 5.004,-8.676 3.913,-9.666 2.72,-10.16 1.426,-10.16 h -4.994 z m 1.458,-1.703 -2.369,-6.762 h 1.925 c 1.012,0 1.874,0.333 2.587,0.998 0.716,0.668 1.185,1.517 1.41,2.55 0.208,0.95 0.084,1.725 -0.373,2.32 -0.456,0.596 -1.186,0.894 -2.189,0.894 z m 8.423,0.181 c 0.063,0.288 0.214,0.532 0.451,0.735 0.239,0.204 0.493,0.305 0.767,0.305 0.277,0 0.489,-0.101 0.641,-0.305 0.149,-0.203 0.193,-0.447 0.13,-0.735 -0.063,-0.29 -0.214,-0.536 -0.452,-0.739 -0.241,-0.204 -0.497,-0.305 -0.774,-0.305 -0.274,0 -0.484,0.101 -0.633,0.305 -0.149,0.203 -0.193,0.449 -0.13,0.739 M 11.203,-3.396 8.819,-10.16 H 6.901 l 2.384,6.764 z m 7.629,0 -0.505,-1.491 h -1.038 c 0.083,-0.355 0.086,-0.711 0.007,-1.07 -0.151,-0.693 -0.52,-1.279 -1.111,-1.755 -0.589,-0.48 -1.296,-0.718 -2.124,-0.718 -0.419,0 -0.724,-0.02 -0.91,-0.062 -0.186,-0.04 -0.298,-0.141 -0.332,-0.3 -0.019,-0.087 0.023,-0.164 0.122,-0.228 0.102,-0.068 0.55,-0.169 1.345,-0.308 0.793,-0.137 1.33,-0.383 1.608,-0.738 0.28,-0.352 0.361,-0.791 0.247,-1.315 -0.321,-1.47 -1.588,-2.204 -3.801,-2.204 -1.015,0 -1.748,0.151 -2.198,0.452 -0.45,0.3 -0.617,0.704 -0.506,1.213 0.145,0.665 0.786,1.172 1.923,1.519 -0.528,0.311 -0.733,0.728 -0.618,1.252 0.137,0.63 0.661,1.047 1.573,1.251 -0.646,0.461 -0.878,1.112 -0.694,1.956 0.149,0.68 0.543,1.273 1.186,1.782 0.641,0.509 1.383,0.764 2.225,0.764 z m -4.628,-3.783 c 0.702,0 1.158,0.485 1.37,1.455 0.065,0.3 0.036,0.536 -0.084,0.71 -0.121,0.171 -0.322,0.258 -0.599,0.258 -0.702,0 -1.16,-0.494 -1.376,-1.484 -0.137,-0.626 0.093,-0.939 0.689,-0.939 m 0.09,-4.473 c 0.069,0.315 -0.186,0.536 -0.763,0.663 l -0.796,0.189 c -0.183,0 -0.438,-0.065 -0.766,-0.191 -0.33,-0.129 -0.526,-0.331 -0.585,-0.601 -0.102,-0.467 0.321,-0.698 1.267,-0.698 0.532,0 0.925,0.047 1.183,0.144 0.255,0.097 0.409,0.263 0.46,0.494 m 6.229,10.13 c 0.063,0.288 0.213,0.532 0.451,0.735 0.238,0.204 0.492,0.305 0.767,0.305 0.277,0 0.489,-0.101 0.64,-0.305 0.15,-0.203 0.194,-0.447 0.131,-0.735 -0.064,-0.29 -0.214,-0.536 -0.453,-0.739 -0.24,-0.204 -0.497,-0.305 -0.773,-0.305 -0.274,0 -0.484,0.101 -0.634,0.305 -0.149,0.203 -0.192,0.449 -0.129,0.739 m 1.322,-1.874 -2.385,-6.764 h -1.918 l 2.385,6.764 z m 4.691,1.425 -0.581,-1.425 h 1.419 l -0.581,-1.491 h -1.414 l -0.852,-2.19 c -0.072,-0.188 -0.126,-0.362 -0.161,-0.524 -0.13,-0.595 -0.004,-0.893 0.38,-0.893 0.231,0 0.629,0.136 1.197,0.407 l -0.387,-1.775 c -0.628,-0.285 -1.208,-0.429 -1.745,-0.429 -0.621,0 -1.068,0.208 -1.334,0.623 -0.269,0.414 -0.33,0.95 -0.186,1.611 0.045,0.203 0.107,0.402 0.185,0.595 l 1.013,2.575 h -1.303 l 0.567,1.491 h 1.303 l 0.54,1.425 z m 8.31,-1.534 -2.346,-6.655 h -1.913 l 0.221,0.626 c -0.71,-0.504 -1.385,-0.757 -2.023,-0.757 -0.651,0 -1.13,0.273 -1.44,0.814 -0.307,0.543 -0.371,1.239 -0.185,2.087 0.264,1.214 0.884,2.2 1.857,2.964 0.971,0.765 2.208,1.145 3.71,1.145 0.747,0 1.454,-0.075 2.119,-0.224 m -3.566,-4.691 1.132,3.221 c -0.139,0.015 -0.277,0.023 -0.409,0.023 -0.769,0 -1.399,-0.243 -1.896,-0.732 -0.496,-0.487 -0.824,-1.09 -0.981,-1.808 -0.089,-0.406 -0.075,-0.724 0.042,-0.955 0.115,-0.231 0.32,-0.345 0.611,-0.345 0.461,0 0.961,0.198 1.501,0.596 M 39.783,0 36.201,-10.16 H 34.288 L 37.865,0 Z m 7.956,0 -3.582,-10.16 H 42.099 L 45.681,0 Z m 2.73,-3.396 -0.278,-0.764 c 0.845,0.586 1.639,0.879 2.389,0.879 0.563,0 0.956,-0.182 1.176,-0.549 0.221,-0.365 0.257,-0.879 0.114,-1.537 -0.042,-0.193 -0.101,-0.397 -0.174,-0.61 L 52.228,-10.16 H 50.31 l 1.42,4.036 c 0.045,0.117 0.079,0.234 0.105,0.35 0.145,0.668 0.02,1.003 -0.377,1.003 -0.457,0 -1.072,-0.347 -1.842,-1.04 l -1.531,-4.349 h -1.919 l 2.39,6.764 z M 63.564,0 60.023,-10.073 c -0.85,-0.144 -1.604,-0.218 -2.267,-0.218 -1.139,0 -1.981,0.292 -2.527,0.881 -0.543,0.586 -0.707,1.372 -0.491,2.363 0.227,1.043 0.783,1.931 1.667,2.666 0.882,0.734 1.933,1.1 3.154,1.1 0.196,0 0.503,-0.023 0.918,-0.073 L 61.654,0 Z m -4.935,-8.581 1.237,3.512 c -0.16,0.025 -0.318,0.035 -0.477,0.035 -0.684,0 -1.267,-0.193 -1.754,-0.583 -0.488,-0.393 -0.793,-0.872 -0.919,-1.445 -0.106,-0.489 -0.037,-0.876 0.207,-1.164 0.245,-0.286 0.632,-0.43 1.164,-0.43 0.138,0 0.318,0.025 0.542,0.075 m 6.025,7.059 c 0.062,0.288 0.213,0.532 0.451,0.735 0.238,0.204 0.492,0.305 0.766,0.305 0.277,0 0.489,-0.101 0.641,-0.305 0.15,-0.203 0.193,-0.447 0.13,-0.735 -0.063,-0.29 -0.214,-0.536 -0.452,-0.739 -0.241,-0.204 -0.497,-0.305 -0.774,-0.305 -0.274,0 -0.484,0.101 -0.633,0.305 -0.149,0.203 -0.193,0.449 -0.129,0.739 m 1.322,-1.874 -2.385,-6.764 h -1.918 l 2.385,6.764 z m 7.82,-0.109 -2.347,-6.655 h -1.913 l 0.222,0.626 c -0.711,-0.504 -1.386,-0.757 -2.025,-0.757 -0.65,0 -1.129,0.273 -1.439,0.814 -0.307,0.543 -0.371,1.239 -0.185,2.087 0.265,1.214 0.884,2.2 1.858,2.964 0.97,0.765 2.207,1.145 3.709,1.145 0.747,0 1.455,-0.075 2.12,-0.224 m -3.566,-4.691 1.131,3.221 c -0.139,0.015 -0.277,0.023 -0.409,0.023 -0.769,0 -1.399,-0.243 -1.896,-0.732 -0.496,-0.487 -0.824,-1.09 -0.981,-1.808 -0.089,-0.406 -0.075,-0.724 0.043,-0.955 0.115,-0.231 0.319,-0.345 0.61,-0.345 0.461,0 0.961,0.198 1.502,0.596"
             inkscape:connector-curvature="0" /></g><g
           transform="translate(284.225,74.6831)"
           id="g901"><path
             id="path903"
             style="fill:#5c6266;fill-opacity:1;fill-rule:evenodd;stroke:none"
             d="M 0,0 V -2.587 H -0.652 V 3.541 H 0.965 C 1.529,3.541 2.119,3.434 2.571,3.074 2.987,2.743 3.165,2.292 3.165,1.766 3.165,1.241 2.985,0.793 2.571,0.463 2.119,0.106 1.527,0 0.965,0 Z m 0,0.614 h 1.099 c 0.356,0 0.738,0.066 1.016,0.305 0.256,0.217 0.349,0.517 0.349,0.847 0,0.333 -0.093,0.633 -0.349,0.855 C 1.836,2.859 1.455,2.926 1.099,2.926 H 0 Z"
             inkscape:connector-curvature="0" /></g><g
           transform="translate(290.0149,72.0768)"
           id="g905"><path
             id="path907"
             style="fill:#5c6266;fill-opacity:1;fill-rule:evenodd;stroke:none"
             d="m 0,0 c -0.601,0 -1.132,0.189 -1.554,0.622 -0.428,0.439 -0.605,0.985 -0.605,1.591 0,0.608 0.177,1.157 0.605,1.596 0.421,0.435 0.952,0.625 1.554,0.625 0.602,0 1.132,-0.19 1.554,-0.625 C 1.981,3.37 2.159,2.821 2.159,2.213 2.159,1.607 1.981,1.061 1.554,0.622 1.132,0.189 0.601,0 0,0 m 0,0.605 c 0.428,0 0.783,0.159 1.077,0.468 0.305,0.32 0.45,0.699 0.45,1.14 0,0.442 -0.144,0.825 -0.45,1.146 -0.294,0.31 -0.649,0.47 -1.077,0.47 -0.428,0 -0.783,-0.16 -1.078,-0.47 -0.305,-0.321 -0.449,-0.704 -0.449,-1.146 0,-0.441 0.144,-0.82 0.449,-1.14 C -0.783,0.764 -0.428,0.605 0,0.605"
             inkscape:connector-curvature="0" /></g><g
           transform="translate(294.7468,73.1805)"
           id="g909"><path
             id="path911"
             style="fill:#5c6266;fill-opacity:1;fill-rule:evenodd;stroke:none"
             d="M 0,0 1.217,3.416 H 1.613 L 2.841,0.008 4.124,3.353 H 4.738 L 3.01,-1.091 H 2.617 L 1.4,2.244 0.186,-1.091 h -0.393 l -1.728,4.444 h 0.652 z"
             inkscape:connector-curvature="0" /></g><g
           transform="translate(300.6178,74.3042)"
           id="g913"><path
             id="path915"
             style="fill:#5c6266;fill-opacity:1;fill-rule:evenodd;stroke:none"
             d="m 0,0 v 0 c 0,-0.441 0.156,-0.813 0.468,-1.123 0.314,-0.313 0.689,-0.466 1.131,-0.466 0.259,0 0.515,0.04 0.759,0.131 0.257,0.095 0.493,0.246 0.706,0.418 l 0.151,0.122 V -1.607 L 3.182,-1.635 C 2.953,-1.825 2.699,-1.986 2.419,-2.09 2.15,-2.19 1.868,-2.235 1.581,-2.235 c -0.611,0 -1.156,0.186 -1.591,0.621 -0.435,0.436 -0.621,0.98 -0.621,1.592 0,0.587 0.147,1.143 0.535,1.592 0.362,0.423 0.83,0.629 1.386,0.629 0.553,0 1.06,-0.16 1.426,-0.588 C 3.081,1.195 3.198,0.634 3.211,0.095 L 3.213,0 Z M 2.526,0.531 C 2.478,0.765 2.389,0.987 2.234,1.173 1.992,1.47 1.669,1.594 1.29,1.594 0.913,1.594 0.618,1.423 0.381,1.135 0.236,0.954 0.133,0.752 0.068,0.531 Z"
             inkscape:connector-curvature="0" /></g><g
           transform="translate(305.8203,75.8871)"
           id="g917"><path
             id="path919"
             style="fill:#5c6266;fill-opacity:1;fill-rule:evenodd;stroke:none"
             d="M 0,0 C 0.405,0.635 1.136,0.938 1.845,0.536 1.861,0.527 1.877,0.518 1.893,0.509 V 0.455 -0.01 -0.205 C 1.842,-0.164 1.883,-0.224 1.832,-0.183 0.819,0.378 0.207,-0.43 0,-0.975 v -2.802 h -0.619 v 0.093 4.267 0.093 h 0.093 0.217 0.216 H 0 Z"
             inkscape:connector-curvature="0" /></g><g
           transform="translate(312.2442,77.5956)"
           id="g921"><path
             id="path923"
             style="fill:#5c6266;fill-opacity:1;fill-rule:evenodd;stroke:none"
             d="M 0,0 H -1.982 V 0.558 H 2.636 V 0 H 0.663 V -5.447 H 0 Z"
             inkscape:connector-curvature="0" /></g><g
           transform="translate(322.9901,77.5003)"
           id="g925"><path
             id="path927"
             style="fill:#5c6266;fill-opacity:1;fill-rule:evenodd;stroke:none"
             d="M 0,0 V -1.962 H 2.498 V -2.546 H 0 v -2.198 h 2.958 v -0.584 h -3.62 V 0.584 H 2.853 V 0 Z"
             inkscape:connector-curvature="0" /></g><g
           transform="translate(327.7564,75.9856)"
           id="g929"><path
             id="path931"
             style="fill:#5c6266;fill-opacity:1;fill-rule:evenodd;stroke:none"
             d="m 0,0 c 0.318,0.361 0.725,0.578 1.235,0.578 0.454,0 0.852,-0.143 1.161,-0.468 0.101,-0.109 0.185,-0.23 0.252,-0.359 l 0.098,0.143 c 0.328,0.424 0.761,0.684 1.319,0.684 0.455,0 0.853,-0.142 1.162,-0.467 0.32,-0.338 0.439,-0.766 0.439,-1.216 V -3.762 H 5.022 v 2.623 c 0,0.297 -0.075,0.581 -0.286,0.805 -0.199,0.211 -0.453,0.298 -0.748,0.298 -0.392,0 -0.7,-0.217 -0.943,-0.498 -0.08,-0.087 -0.15,-0.183 -0.212,-0.282 V -3.762 H 2.189 v 2.623 c 0,0.297 -0.074,0.581 -0.286,0.805 -0.198,0.211 -0.453,0.298 -0.746,0.298 -0.393,0 -0.703,-0.218 -0.946,-0.498 C 0.132,-0.621 0.062,-0.717 0,-0.816 V -3.762 H -0.644 V 0.485 H 0 Z"
             inkscape:connector-curvature="0" /></g><g
           transform="translate(337.4339,75.7111)"
           id="g933"><path
             id="path935"
             style="fill:#5c6266;fill-opacity:1;fill-rule:nonzero;stroke:none"
             d="M 0,0 C -0.544,0.351 -1.318,0.264 -1.959,-0.589 V -2.317 C -1.294,-3.026 -0.444,-3.095 0.109,-2.684 0.95,-2.061 0.904,-0.582 0,0 m -2.623,0.76 v 0 h 0.645 c 10e-4,-0.177 10e-4,-0.355 0.002,-0.532 0.126,0.243 0.364,0.39 0.613,0.48 0.769,0.277 1.702,0.169 2.287,-0.439 0.8,-0.922 0.76,-2.404 0.023,-3.23 -0.77,-0.862 -1.931,-0.651 -2.85,-0.173 -0.025,0.013 -0.05,0.027 -0.075,0.039 v -2.074 h -0.645 z"
             inkscape:connector-curvature="0" /></g><path
           id="path937"
           style="fill:#5c6266;fill-opacity:1;fill-rule:evenodd;stroke:none"
           d="m 282.097,81.209 h 12.258 v -0.705 h -12.258 z"
           inkscape:connector-curvature="0" /><path
           id="path939"
           style="fill:#5c6266;fill-opacity:1;fill-rule:evenodd;stroke:none"
           d="m 304.232,81.209 h 55.781 v -0.705 h -55.781 z"
           inkscape:connector-curvature="0" /><g
           transform="translate(316.6415,72.1859)"
           id="g941"><path
             id="path943"
             style="fill:#5c6266;fill-opacity:1;fill-rule:evenodd;stroke:none"
             d="m 0,0 c -0.601,0 -1.132,0.189 -1.554,0.622 -0.428,0.439 -0.605,0.985 -0.605,1.591 0,0.608 0.177,1.158 0.605,1.596 0.421,0.435 0.952,0.625 1.554,0.625 0.602,0 1.132,-0.19 1.554,-0.625 C 1.981,3.371 2.159,2.821 2.159,2.213 2.159,1.607 1.981,1.061 1.554,0.622 1.132,0.189 0.601,0 0,0 m 0,0.605 c 0.428,0 0.783,0.159 1.077,0.469 0.305,0.319 0.45,0.698 0.45,1.139 0,0.442 -0.144,0.826 -0.45,1.146 -0.294,0.31 -0.649,0.47 -1.077,0.47 -0.428,0 -0.783,-0.16 -1.078,-0.47 -0.305,-0.32 -0.449,-0.704 -0.449,-1.146 0,-0.441 0.144,-0.82 0.449,-1.139 C -0.783,0.764 -0.428,0.605 0,0.605"
             inkscape:connector-curvature="0" /></g><g
           transform="translate(341.9013,72.1859)"
           id="g945"><path
             id="path947"
             style="fill:#5c6266;fill-opacity:1;fill-rule:evenodd;stroke:none"
             d="m 0,0 c -0.601,0 -1.132,0.189 -1.554,0.622 -0.428,0.439 -0.605,0.985 -0.605,1.591 0,0.608 0.177,1.158 0.605,1.596 0.421,0.435 0.952,0.625 1.554,0.625 0.602,0 1.132,-0.19 1.554,-0.625 C 1.981,3.371 2.159,2.821 2.159,2.213 2.159,1.607 1.981,1.061 1.554,0.622 1.132,0.189 0.601,0 0,0 m 0,0.605 c 0.428,0 0.783,0.159 1.077,0.469 0.305,0.319 0.45,0.698 0.45,1.139 0,0.442 -0.144,0.826 -0.45,1.146 -0.294,0.31 -0.649,0.47 -1.077,0.47 -0.428,0 -0.783,-0.16 -1.078,-0.47 -0.305,-0.32 -0.449,-0.704 -0.449,-1.146 0,-0.441 0.144,-0.82 0.449,-1.139 C -0.783,0.764 -0.428,0.605 0,0.605"
             inkscape:connector-curvature="0" /></g><g
           transform="translate(346.6331,73.1392)"
           id="g949"><path
             id="path951"
             style="fill:#5c6266;fill-opacity:1;fill-rule:evenodd;stroke:none"
             d="M 0,0 1.217,3.416 H 1.613 L 2.841,0.008 4.124,3.353 H 4.738 L 3.01,-1.091 H 2.617 L 1.4,2.244 0.186,-1.091 h -0.393 l -1.728,4.444 h 0.652 z"
             inkscape:connector-curvature="0" /></g><g
           transform="translate(352.5042,74.3042)"
           id="g953"><path
             id="path955"
             style="fill:#5c6266;fill-opacity:1;fill-rule:evenodd;stroke:none"
             d="m 0,0 v 0 c 0,-0.441 0.156,-0.813 0.468,-1.123 0.314,-0.313 0.689,-0.466 1.131,-0.466 0.259,0 0.515,0.04 0.759,0.131 0.257,0.095 0.493,0.246 0.706,0.418 l 0.151,0.122 V -1.607 L 3.182,-1.635 C 2.953,-1.825 2.699,-1.986 2.419,-2.09 2.15,-2.19 1.868,-2.235 1.581,-2.235 c -0.611,0 -1.156,0.186 -1.591,0.621 -0.435,0.436 -0.621,0.98 -0.621,1.592 0,0.587 0.147,1.143 0.535,1.592 0.362,0.423 0.83,0.629 1.386,0.629 0.553,0 1.06,-0.16 1.426,-0.588 C 3.081,1.195 3.198,0.634 3.211,0.095 L 3.213,0 Z M 2.526,0.531 C 2.478,0.765 2.389,0.987 2.234,1.173 1.992,1.47 1.669,1.594 1.29,1.594 0.913,1.594 0.618,1.423 0.382,1.135 0.236,0.954 0.133,0.752 0.068,0.531 Z"
             inkscape:connector-curvature="0" /></g><g
           transform="translate(357.7066,75.9255)"
           id="g957"><path
             id="path959"
             style="fill:#5c6266;fill-opacity:1;fill-rule:evenodd;stroke:none"
             d="M 0,0 C 0.405,0.635 1.136,0.938 1.845,0.536 1.861,0.527 1.877,0.518 1.892,0.509 V 0.455 -0.01 -0.205 C 1.842,-0.164 1.883,-0.224 1.832,-0.183 0.819,0.378 0.207,-0.43 0,-0.974 v -2.803 h -0.619 v 0.093 4.267 0.093 h 0.093 0.217 0.216 H 0 Z"
             inkscape:connector-curvature="0" /></g></g></g></g></svg>